<?xml version="1.0" encoding="UTF-8"?>
<svg id="_イヤー_2" data-name="レイヤー 2" xmlns="http://www.w3.org/2000/svg" viewBox="0 0 79.37008 79.37008">
  <defs>
    <style>
      .cls-1 {
        fill: #fff;
      }

      .cls-2 {
        fill: #efefef;
      }

      .cls-3 {
        fill: #4c4948;
      }

      .cls-4 {
        fill: none;
        stroke: #4c4948;
        stroke-miterlimit: 10;
      }
    </style>
  </defs>
  <g id="_back" data-name=" back">
    <circle class="cls-2" cx="39.68504" cy="39.68504" r="39.68504"/>
  </g>
  <g id="_イヤー_2-2" data-name="レイヤー 2">
    <g>
      <path class="cls-3" d="M59.57666,30.2316c-.62863,0-1.14036,.57641-1.14036,1.28482,0,.30616,.09683,.59947,.26994,.82995-.98372,1.31985-2.01109,2.5862-3.05546,3.76587-1.27366,1.43879-2.61105,2.79489-3.98,4.03563-.44318-2.69416-.82553-5.44055-1.13727-8.16943-.20374-1.78464-.38232-3.60849-.53092-5.42465,.51653-.1221,.90657-.64057,.90657-1.2572,0-.70845-.51155-1.28489-1.14032-1.28489s-1.1405,.57644-1.1405,1.28489c0,.32178,.10624,.62842,.29563,.86347-.77001,1.65875-1.59241,3.27977-2.44588,4.82052-.83252,1.50288-1.71698,2.9714-2.63246,4.37173-.69599-2.49678-1.35354-5.04837-1.95627-7.59193-.55763-2.3534-1.37098-6.26359-1.68188-7.76191,.37583-.21708,.618-.65408,.618-1.14257,0-.70848-.51155-1.28489-1.14036-1.28489-.62891,0-1.14032,.57641-1.14032,1.28489,0,.48849,.242,.92549,.61782,1.14257-.31072,1.49832-1.12407,5.40851-1.68188,7.76191-.60256,2.54286-1.26011,5.09463-1.95624,7.59193-.91535-1.39997-1.79981-2.86867-2.6325-4.3718-.82725-1.49319-1.62569-3.06272-2.37474-4.66784,.27643-.24095,.4423-.61428,.4423-1.01608,0-.70845-.51155-1.28489-1.1405-1.28489-.62877,0-1.14032,.57644-1.14032,1.28489,0,.5226,.27829,.98414,.69493,1.18223-.14997,1.84084-.33058,3.69023-.5371,5.49962-.31174,2.72828-.69392,5.47474-1.13727,8.16943-1.3686-1.24049-2.70599-2.59659-3.97983-4.03563-1.043-1.17812-2.06869-2.44209-3.05048-3.75927,.16984-.2294,.26478-.52022,.26478-.82262,0-.70855-.51155-1.28485-1.1405-1.28485-.62877,0-1.14036,.5763-1.14036,1.28485,0,.72452,.53675,1.31472,1.18318,1.28387,.34206,1.7553,.64678,3.54009,.90626,5.30799,.31068,2.11667,.5676,4.27823,.76365,6.4248l.01762,3.9343H57.84645l.01765-3.9343c.19606-2.14657,.45293-4.30813,.76379-6.4248,.26049-1.7744,.56588-3.56374,.90864-5.32178l.04012,.00084c.62891,0,1.1405-.57634,1.1405-1.28485,0-.70841-.51158-1.28482-1.1405-1.28482Z"/>
      <g>
        <path class="cls-3" d="M28.44908,52.13883h2.76025c.2666,0,.5249,.03125,.7749,.09473s.46826,.16699,.65527,.31055c.18652,.14258,.32617,.32812,.41992,.55469,.09326,.22656,.11621,.5,.06982,.82031-.05322,.39941-.21338,.72949-.47998,.99023-.2666,.25977-.58984,.44629-.97021,.55957v.01953c.22021,.02734,.41699,.08887,.59033,.18555s.31836,.21973,.43506,.37012c.11621,.14941,.19824,.32324,.24463,.51953,.04688,.19727,.05371,.40918,.02002,.63574-.05322,.38672-.1748,.70801-.36475,.96484s-.42188,.46289-.69482,.62012c-.27344,.15625-.5752,.26758-.90527,.33496-.33008,.06641-.66162,.09961-.99512,.09961h-2.5498l.98975-7.08008Zm.42041,6h1.15967c.16016,0,.3335-.00977,.52002-.03027,.18652-.01953,.36035-.06641,.52002-.13965,.16016-.07324,.30029-.17871,.41992-.31543,.12012-.13574,.19678-.32129,.22998-.55469,.05371-.37305-.03174-.63281-.25488-.78027-.22314-.14648-.5918-.21973-1.10498-.21973h-1.20996l-.27979,2.04004Zm.43994-3.12012h1.1499c.41992,0,.74658-.08105,.97998-.24512,.2334-.16309,.3667-.37793,.3999-.64453,.04688-.30664-.02832-.53516-.2251-.68555-.19678-.14941-.53467-.22461-1.01465-.22461h-1.04004l-.25,1.7998Z"/>
        <path class="cls-3" d="M34.92906,52.13883h4.69043l-.16016,1.13965h-3.43018l-.23975,1.74023h3.25l-.16016,1.14062h-3.25l-.27002,1.91992h3.60986l-.15967,1.13965h-4.87012l.98975-7.08008Z"/>
        <path class="cls-3" d="M44.29966,53.65837c-.11328-.19336-.27344-.33496-.48047-.4248s-.43359-.13477-.67969-.13477c-.14697,0-.29199,.0166-.43555,.0498-.14307,.0332-.2749,.08691-.39502,.16016-.11963,.07324-.22168,.16797-.30469,.28516-.0835,.11621-.13525,.25488-.15527,.41504-.0332,.24023,.02344,.42383,.16992,.5498,.14697,.12695,.33838,.2373,.5752,.33008,.23682,.09375,.49268,.18359,.77002,.27051,.27734,.08594,.5293,.20605,.75977,.35938s.41016,.35645,.54102,.61035c.12891,.25293,.16406,.58984,.10352,1.00977-.05273,.37988-.16992,.71191-.34961,.99512s-.40234,.51855-.66406,.70508c-.26367,.18652-.55859,.32617-.88574,.41992-.32666,.09277-.66309,.13965-1.00977,.13965-.43994,0-.85352-.07324-1.24023-.21973s-.70312-.39355-.94971-.74023l1.08008-.91992c.12646,.2334,.30469,.41504,.53467,.54492s.48486,.19531,.76514,.19531c.14648,0,.29492-.02051,.44482-.05957,.1499-.04004,.29004-.10059,.41992-.18066s.24121-.18164,.33496-.30469,.1543-.26465,.17969-.4248c.0332-.26074-.02344-.45996-.16992-.60059-.14648-.13965-.33789-.25781-.57471-.35449-.23633-.09668-.49316-.18848-.77002-.27539-.27637-.08594-.52832-.20508-.75488-.35449-.22656-.15039-.40674-.35059-.54004-.60059s-.16992-.58496-.10986-1.00488c.05322-.36621,.17334-.68359,.35986-.9502s.41504-.48828,.68506-.66504,.56836-.30859,.89502-.39453c.32666-.08691,.65332-.12988,.97949-.12988,.37305,0,.72852,.05664,1.06641,.16992,.33594,.11328,.62109,.2998,.85352,.55957l-1.04883,.96973Z"/>
        <path class="cls-3" d="M48.06919,53.27848h-2.16992l.15918-1.13965h5.60059l-.16016,1.13965h-2.16992l-.83008,5.94043h-1.25977l.83008-5.94043Z"/>
      </g>
      <path class="cls-1" d="M36.93687,46.36735l2.67773-3.40625-.0127-.02539c-.104,.05176-.23877,.09082-.40332,.11621-.16455,.02637-.32471,.03906-.48096,.03906-.40723,0-.76904-.07715-1.08545-.2334s-.57861-.36816-.78662-.6377c-.20801-.26855-.35547-.58008-.44189-.93555s-.09961-.73242-.03906-1.13086c.06055-.47656,.20166-.91016,.42285-1.2998,.22071-.39062,.49561-.72168,.8252-.99512,.32959-.27246,.70654-.48242,1.13086-.62988,.4248-.14746,.87109-.22168,1.33936-.22168,.47656,0,.90527,.07227,1.28711,.21484,.38086,.14258,.69727,.34863,.94873,.61719,.25146,.26953,.43115,.59863,.53955,.98828s.12793,.82812,.05859,1.31348c-.06982,.48535-.2124,.9248-.4292,1.31934s-.47656,.79492-.77979,1.20215l-2.87305,3.70508h-1.89795Zm4.3418-6.20117c.03467-.2334,.02148-.45215-.03906-.65625-.06055-.20312-.15576-.38086-.28564-.5332-.13037-.15137-.29053-.27051-.48145-.35742-.19043-.08691-.40283-.12988-.63672-.12988s-.45752,.04297-.66943,.12988c-.2124,.08691-.40527,.20605-.57861,.35742-.17334,.15234-.31836,.33008-.43555,.5332-.11719,.2041-.19287,.42285-.22754,.65625-.03467,.23438-.02148,.45312,.03906,.65625,.06055,.2041,.15625,.38184,.28613,.5332,.12988,.15234,.28809,.27148,.47461,.35742,.18604,.08691,.39648,.12988,.63037,.12988s.45898-.04297,.67578-.12988c.2168-.08594,.41162-.20508,.58496-.35742,.17334-.15137,.31885-.3291,.43555-.5332,.11719-.20312,.19287-.42188,.22754-.65625Z"/>
      <line class="cls-4" x1="21.47731" y1="49.69224" x2="57.89055" y2="49.69224"/>
    </g>
  </g>
</svg>