<?xml version="1.0" encoding="UTF-8"?>
<svg id="_イヤー_2" data-name="レイヤー 2" xmlns="http://www.w3.org/2000/svg" viewBox="0 0 79.37008 79.37008">
  <defs>
    <style>
      .cls-1 {
        fill: #fff;
      }

      .cls-2 {
        fill: #efefef;
      }

      .cls-3 {
        fill: #4c4948;
      }

      .cls-4 {
        fill: none;
        stroke: #4c4948;
        stroke-miterlimit: 10;
      }
    </style>
  </defs>
  <g id="_back" data-name=" back">
    <circle class="cls-2" cx="39.68504" cy="39.68504" r="39.68504"/>
  </g>
  <g id="_イヤー_2-2" data-name="レイヤー 2">
    <g>
      <path class="cls-3" d="M59.57666,30.2316c-.62863,0-1.14036,.57641-1.14036,1.28482,0,.30616,.09683,.59947,.26994,.82995-.98372,1.31985-2.01109,2.5862-3.05546,3.76587-1.27366,1.43879-2.61105,2.79489-3.98,4.03563-.44318-2.69416-.82553-5.44055-1.13727-8.16943-.20374-1.78464-.38232-3.60849-.53092-5.42465,.51653-.1221,.90657-.64057,.90657-1.2572,0-.70845-.51155-1.28489-1.14032-1.28489s-1.1405,.57644-1.1405,1.28489c0,.32178,.10624,.62842,.29563,.86347-.77001,1.65875-1.59241,3.27977-2.44588,4.82052-.83252,1.50288-1.71698,2.9714-2.63246,4.37173-.69599-2.49678-1.35354-5.04837-1.95627-7.59193-.55763-2.3534-1.37098-6.26359-1.68188-7.76191,.37583-.21708,.618-.65408,.618-1.14257,0-.70848-.51155-1.28489-1.14036-1.28489-.62891,0-1.14032,.57641-1.14032,1.28489,0,.48849,.242,.92549,.61782,1.14257-.31072,1.49832-1.12407,5.40851-1.68188,7.76191-.60256,2.54286-1.26011,5.09463-1.95624,7.59193-.91535-1.39997-1.79981-2.86867-2.6325-4.3718-.82725-1.49319-1.62569-3.06272-2.37474-4.66784,.27643-.24095,.4423-.61428,.4423-1.01608,0-.70845-.51155-1.28489-1.1405-1.28489-.62877,0-1.14032,.57644-1.14032,1.28489,0,.5226,.27829,.98414,.69493,1.18223-.14997,1.84084-.33058,3.69023-.5371,5.49962-.31174,2.72828-.69392,5.47474-1.13727,8.16943-1.3686-1.24049-2.70599-2.59659-3.97983-4.03563-1.043-1.17812-2.06869-2.44209-3.05048-3.75927,.16984-.2294,.26478-.52022,.26478-.82262,0-.70855-.51155-1.28485-1.1405-1.28485-.62877,0-1.14036,.5763-1.14036,1.28485,0,.72452,.53675,1.31472,1.18318,1.28387,.34206,1.7553,.64678,3.54009,.90626,5.30799,.31068,2.11667,.5676,4.27823,.76365,6.4248l.01762,3.9343H57.84645l.01765-3.9343c.19606-2.14657,.45293-4.30813,.76379-6.4248,.26049-1.7744,.56588-3.56374,.90864-5.32178l.04012,.00084c.62891,0,1.1405-.57634,1.1405-1.28485,0-.70841-.51158-1.28482-1.1405-1.28482Z"/>
      <g>
        <path class="cls-3" d="M28.4495,52.13883h2.75977c.2666,0,.52539,.03125,.77539,.09473s.46777,.16699,.65527,.31055c.18652,.14258,.32617,.32812,.41992,.55469,.09277,.22656,.11621,.5,.06934,.82031-.05273,.39941-.21289,.72949-.47949,.99023-.2666,.25977-.58984,.44629-.9707,.55957v.01953c.2207,.02734,.41699,.08887,.59082,.18555,.17285,.09668,.31836,.21973,.43457,.37012,.11621,.14941,.19824,.32324,.24512,.51953,.04688,.19727,.05371,.40918,.01953,.63574-.05273,.38672-.1748,.70801-.36426,.96484-.19043,.25684-.42188,.46289-.69531,.62012-.27344,.15625-.5752,.26758-.90527,.33496-.33008,.06641-.66113,.09961-.99512,.09961h-2.5498l.99023-7.08008Zm.41992,6h1.16014c.16017,0,.33302-.00977,.51954-.03027,.18652-.01953,.36035-.06641,.52051-.13965s.2998-.17871,.41992-.31543c.12012-.13574,.19629-.32129,.22949-.55469,.05371-.37305-.03125-.63281-.25488-.78027-.22266-.14648-.5918-.21973-1.10449-.21973h-1.20996l-.28027,2.04004Zm.44043-3.12012h1.14941c.41992,0,.74707-.08105,.98047-.24512,.2334-.16309,.36621-.37793,.39941-.64453,.04688-.30664-.02832-.53516-.22461-.68555-.19727-.14941-.53516-.22461-1.01465-.22461h-1.04004l-.25,1.7998Z"/>
        <path class="cls-3" d="M34.92899,52.13883h4.69043l-.16016,1.13965h-3.4297l-.24022,1.74023h3.25l-.16016,1.14062h-3.25l-.26953,1.91992h3.60938l-.15918,1.13965h-4.87012l.98926-7.08008Z"/>
        <path class="cls-3" d="M44.30009,53.65837c-.11328-.19336-.27344-.33496-.48047-.4248s-.43359-.13477-.67969-.13477c-.14746,0-.29199,.0166-.43555,.0498s-.27539,.08691-.39551,.16016c-.11914,.07324-.22168,.16797-.30469,.28516-.08301,.11621-.13477,.25488-.15527,.41504-.0332,.24023,.02344,.42383,.16992,.5498,.14746,.12695,.33887,.2373,.5752,.33008,.2373,.09375,.49316,.18359,.77051,.27051,.27734,.08594,.5293,.20605,.75977,.35938s.41016,.35645,.54102,.61035c.12891,.25293,.16406,.58984,.10352,1.00977-.05273,.37988-.16992,.71191-.34961,.99512s-.40234,.51855-.66406,.70508c-.26367,.18652-.55859,.32617-.88574,.41992-.32715,.09277-.66309,.13965-1.00977,.13965-.44043,0-.85352-.07324-1.24023-.21973s-.70312-.39355-.9502-.74023l1.08008-.91992c.12695,.2334,.30469,.41504,.53516,.54492,.22949,.12988,.48438,.19531,.76465,.19531,.14648,0,.29492-.02051,.44531-.05957,.14941-.04004,.29004-.10059,.41992-.18066s.24121-.18164,.33496-.30469,.1543-.26465,.17969-.4248c.0332-.26074-.02344-.45996-.16992-.60059-.14648-.13965-.33789-.25781-.5752-.35449-.23633-.09668-.49316-.18848-.76953-.27539-.27637-.08594-.52832-.20508-.75488-.35449-.22656-.15039-.40723-.35059-.54004-.60059-.13379-.25-.16992-.58496-.11035-1.00488,.05371-.36621,.17383-.68359,.36035-.9502s.41504-.48828,.68457-.66504c.27051-.17676,.56836-.30859,.89551-.39453,.32617-.08691,.65332-.12988,.97949-.12988,.37305,0,.72852,.05664,1.06641,.16992,.33594,.11328,.62109,.2998,.85352,.55957l-1.04883,.96973Z"/>
        <path class="cls-3" d="M48.06962,53.27848h-2.16992l.15918-1.13965h5.60059l-.16016,1.13965h-2.16992l-.83008,5.94043h-1.25977l.83008-5.94043Z"/>
      </g>
      <path class="cls-1" d="M36.75419,37.16325h6.25293l-.19434,1.42969-4.77148,7.77441h-1.83301l4.83594-7.72168h-4.49805l.20801-1.48242Z"/>
      <line class="cls-4" x1="21.47731" y1="49.69224" x2="57.89055" y2="49.69224"/>
    </g>
  </g>
</svg>