<?xml version="1.0" encoding="UTF-8"?>
<svg id="_イヤー_2" data-name="レイヤー 2" xmlns="http://www.w3.org/2000/svg" viewBox="0 0 79.37008 79.37008">
  <defs>
    <style>
      .cls-1 {
        fill: #fff;
      }

      .cls-2 {
        fill: #efefef;
      }

      .cls-3 {
        fill: #4c4948;
      }

      .cls-4 {
        fill: none;
        stroke: #4c4948;
        stroke-miterlimit: 10;
      }
    </style>
  </defs>
  <g id="_back" data-name=" back">
    <circle class="cls-2" cx="39.68504" cy="39.68504" r="39.68504"/>
  </g>
  <g id="_イヤー_2-2" data-name="レイヤー 2">
    <g>
      <path class="cls-3" d="M59.57666,30.2316c-.62863,0-1.14036,.57641-1.14036,1.28482,0,.30616,.09683,.59947,.26994,.82995-.98372,1.31985-2.01109,2.5862-3.05546,3.76587-1.27366,1.43879-2.61105,2.79489-3.98,4.03563-.44318-2.69416-.82553-5.44055-1.13727-8.16943-.20374-1.78464-.38232-3.60849-.53092-5.42465,.51653-.1221,.90657-.64057,.90657-1.2572,0-.70845-.51155-1.28489-1.14032-1.28489s-1.1405,.57644-1.1405,1.28489c0,.32178,.10624,.62842,.29563,.86347-.77001,1.65875-1.59241,3.27977-2.44588,4.82052-.83252,1.50288-1.71698,2.9714-2.63246,4.37173-.69599-2.49678-1.35354-5.04837-1.95627-7.59193-.55763-2.3534-1.37098-6.26359-1.68188-7.76191,.37583-.21708,.618-.65408,.618-1.14257,0-.70848-.51155-1.28489-1.14036-1.28489-.62891,0-1.14032,.57641-1.14032,1.28489,0,.48849,.242,.92549,.61782,1.14257-.31072,1.49832-1.12407,5.40851-1.68188,7.76191-.60256,2.54286-1.26011,5.09463-1.95624,7.59193-.91535-1.39997-1.79981-2.86867-2.6325-4.3718-.82725-1.49319-1.62569-3.06272-2.37474-4.66784,.27643-.24095,.4423-.61428,.4423-1.01608,0-.70845-.51155-1.28489-1.1405-1.28489-.62877,0-1.14032,.57644-1.14032,1.28489,0,.5226,.27829,.98414,.69493,1.18223-.14997,1.84084-.33058,3.69023-.5371,5.49962-.31174,2.72828-.69392,5.47474-1.13727,8.16943-1.3686-1.24049-2.70599-2.59659-3.97983-4.03563-1.043-1.17812-2.06869-2.44209-3.05048-3.75927,.16984-.2294,.26478-.52022,.26478-.82262,0-.70855-.51155-1.28485-1.1405-1.28485-.62877,0-1.14036,.5763-1.14036,1.28485,0,.72452,.53675,1.31472,1.18318,1.28387,.34206,1.7553,.64678,3.54009,.90626,5.30799,.31068,2.11667,.5676,4.27823,.76365,6.4248l.01762,3.9343H57.84645l.01765-3.9343c.19606-2.14657,.45293-4.30813,.76379-6.4248,.26049-1.7744,.56588-3.56374,.90864-5.32178l.04012,.00084c.62891,0,1.1405-.57634,1.1405-1.28485,0-.70841-.51158-1.28482-1.1405-1.28482Z"/>
      <g>
        <path class="cls-3" d="M28.4486,52.13883h2.76074c.2666,0,.52441,.03125,.77441,.09473s.46875,.16699,.65527,.31055c.18652,.14258,.32617,.32812,.41992,.55469s.11621,.5,.07031,.82031c-.05371,.39941-.21387,.72949-.48047,.99023-.2666,.25977-.58984,.44629-.96973,.55957v.01953c.21973,.02734,.41699,.08887,.58984,.18555,.17383,.09668,.31836,.21973,.43555,.37012,.11621,.14941,.19824,.32324,.24414,.51953,.04688,.19727,.05371,.40918,.02051,.63574-.05371,.38672-.1748,.70801-.36523,.96484-.18945,.25684-.42188,.46289-.69434,.62012-.27345,.15625-.5752,.26758-.90527,.33496-.33008,.06641-.66211,.09961-.99512,.09961h-2.5498l.98926-7.08008Zm.4209,6h1.15918c.16016,0,.33398-.00977,.52051-.03027,.18652-.01953,.36035-.06641,.51953-.13965,.16016-.07324,.30078-.17871,.41992-.31543,.12012-.13574,.19727-.32129,.23047-.55469,.05371-.37305-.03223-.63281-.25488-.78027-.22363-.14648-.5918-.21973-1.10547-.21973h-1.20996l-.2793,2.04004Zm.43945-3.12012h1.15039c.41992,0,.74609-.08105,.97949-.24512,.2334-.16309,.36719-.37793,.40039-.64453,.04687-.30664-.02832-.53516-.22559-.68555-.19629-.14941-.53418-.22461-1.01465-.22461h-1.04004l-.25,1.7998Z"/>
        <path class="cls-3" d="M34.92907,52.13883h4.69043l-.16016,1.13965h-3.43066l-.23926,1.74023h3.25l-.16016,1.14062h-3.25l-.27051,1.91992h3.61035l-.16016,1.13965h-4.87012l.99023-7.08008Z"/>
        <path class="cls-3" d="M44.29919,53.65837c-.11328-.19336-.27344-.33496-.48047-.4248s-.43359-.13477-.67969-.13477c-.14648,0-.29199,.0166-.43555,.0498-.14258,.0332-.27441,.08691-.39453,.16016s-.22168,.16797-.30469,.28516c-.08398,.11621-.13574,.25488-.15527,.41504-.0332,.24023,.02344,.42383,.16992,.5498,.14648,.12695,.33789,.2373,.5752,.33008,.23633,.09375,.49219,.18359,.76953,.27051,.27734,.08594,.5293,.20605,.75977,.35938s.41016,.35645,.54102,.61035c.12891,.25293,.16406,.58984,.10352,1.00977-.05273,.37988-.16992,.71191-.34961,.99512s-.40234,.51855-.66406,.70508c-.26367,.18652-.55859,.32617-.88574,.41992-.32617,.09277-.66309,.13965-1.00977,.13965-.43945,0-.85352-.07324-1.24023-.21973s-.70312-.39355-.94922-.74023l1.08008-.91992c.12598,.2334,.30469,.41504,.53418,.54492,.23047,.12988,.48535,.19531,.76562,.19531,.14648,0,.29492-.02051,.44434-.05957,.15039-.04004,.29004-.10059,.41992-.18066s.24121-.18164,.33496-.30469,.1543-.26465,.17969-.4248c.0332-.26074-.02344-.45996-.16992-.60059-.14648-.13965-.33789-.25781-.57422-.35449s-.49316-.18848-.77051-.27539c-.27637-.08594-.52832-.20508-.75488-.35449-.22656-.15039-.40625-.35059-.54004-.60059-.13281-.25-.16992-.58496-.10938-1.00488,.05273-.36621,.17285-.68359,.35938-.9502s.41504-.48828,.68555-.66504c.26953-.17676,.56836-.30859,.89453-.39453,.32715-.08691,.65332-.12988,.97949-.12988,.37305,0,.72852,.05664,1.06641,.16992,.33594,.11328,.62109,.2998,.85352,.55957l-1.04883,.96973Z"/>
        <path class="cls-3" d="M48.06872,53.27848h-2.16992l.15918-1.13965h5.60059l-.16016,1.13965h-2.16992l-.83008,5.94043h-1.25977l.83008-5.94043Z"/>
      </g>
      <path class="cls-1" d="M40.08239,37.007c.38965,0,.74805,.05469,1.07227,.16309,.3252,.1084,.60254,.26465,.83203,.46777,.22949,.2041,.39648,.45508,.50098,.75391,.10352,.29883,.12988,.64355,.07812,1.0332-.06934,.49414-.24707,.92773-.5332,1.30078-.28613,.37207-.67188,.62793-1.15723,.7666v.02637c.2168,.04297,.41602,.13184,.59766,.2666,.18262,.13379,.33594,.29883,.46191,.49316,.12598,.19531,.2168,.41895,.27344,.66992,.05566,.25098,.06641,.51953,.03223,.80566-.06934,.45996-.20801,.86035-.41602,1.20312-.20801,.3418-.4707,.62988-.78613,.86426-.31738,.23438-.67188,.40918-1.06641,.52637s-.80371,.17578-1.22852,.17578c-.43359,0-.83008-.05859-1.18945-.17578s-.66309-.29199-.91016-.52637-.42871-.52246-.5459-.86426c-.11719-.34277-.14062-.74316-.07129-1.20312,.03418-.28613,.11719-.55469,.24707-.80566s.28613-.47461,.46777-.66992c.18164-.19434,.38379-.35938,.60449-.49316,.2207-.13477,.44434-.22363,.66992-.2666v-.02637c-.44238-.13867-.75293-.39453-.92969-.7666-.17773-.37305-.23242-.80664-.16309-1.30078,.05273-.38965,.17383-.73438,.36426-1.0332s.42676-.5498,.70898-.75391c.28125-.20312,.60156-.35938,.96191-.46777,.35938-.1084,.73438-.16309,1.12402-.16309Zm-.72754,5.10938c-.20801,0-.41211,.03516-.61133,.10352-.19922,.07031-.37695,.16992-.5332,.2998s-.28809,.2832-.39648,.46094-.17578,.37109-.20117,.5791c-.06934,.44141,.02343,.79883,.2793,1.07227,.25586,.27246,.6084,.40918,1.05957,.40918,.4502,0,.83887-.13867,1.16309-.41602,.3252-.27734,.52246-.63281,.5918-1.06543,.02637-.20801,.01074-.40137-.0459-.5791-.05566-.17773-.14746-.33105-.27246-.46094-.12598-.12988-.27734-.22949-.45508-.2998-.17773-.06836-.37012-.10352-.57812-.10352Zm.53223-3.7832c-.39844,0-.72559,.12207-.98145,.36426-.25488,.24219-.40527,.53711-.44824,.88379-.05176,.36426,.01758,.66992,.20801,.91699s.48145,.37012,.87109,.37012c.17285,0,.33984-.03223,.50098-.09766,.16016-.06445,.30469-.15625,.43457-.27246,.13086-.11719,.24121-.25391,.33203-.41016,.09082-.15527,.14941-.32422,.17578-.50684,.04297-.34668-.03711-.6416-.24121-.88379-.20312-.24219-.4873-.36426-.85156-.36426Z"/>
      <line class="cls-4" x1="21.47731" y1="49.69224" x2="57.89055" y2="49.69224"/>
    </g>
  </g>
</svg>