<?xml version="1.0" encoding="UTF-8"?>
<svg id="_イヤー_2" data-name="レイヤー 2" xmlns="http://www.w3.org/2000/svg" viewBox="0 0 79.37008 79.37008">
  <defs>
    <style>
      .cls-1 {
        fill: #fff;
      }

      .cls-2 {
        fill: #efefef;
      }

      .cls-3 {
        fill: #4c4948;
      }

      .cls-4 {
        fill: none;
        stroke: #4c4948;
        stroke-miterlimit: 10;
      }
    </style>
  </defs>
  <g id="_back" data-name=" back">
    <circle class="cls-2" cx="39.68504" cy="39.68504" r="39.68504"/>
  </g>
  <g id="_イヤー_2-2" data-name="レイヤー 2">
    <g>
      <path class="cls-3" d="M59.57666,30.2316c-.62863,0-1.14036,.57641-1.14036,1.28482,0,.30616,.09683,.59947,.26994,.82995-.98372,1.31985-2.01109,2.5862-3.05546,3.76587-1.27366,1.43879-2.61105,2.79489-3.98,4.03563-.44318-2.69416-.82553-5.44055-1.13727-8.16943-.20374-1.78464-.38232-3.60849-.53092-5.42465,.51653-.1221,.90657-.64057,.90657-1.2572,0-.70845-.51155-1.28489-1.14032-1.28489s-1.1405,.57644-1.1405,1.28489c0,.32178,.10624,.62842,.29563,.86347-.77001,1.65875-1.59241,3.27977-2.44588,4.82052-.83252,1.50288-1.71698,2.9714-2.63246,4.37173-.69599-2.49678-1.35354-5.04837-1.95627-7.59193-.55763-2.3534-1.37098-6.26359-1.68188-7.76191,.37583-.21708,.618-.65408,.618-1.14257,0-.70848-.51155-1.28489-1.14036-1.28489-.62891,0-1.14032,.57641-1.14032,1.28489,0,.48849,.242,.92549,.61782,1.14257-.31072,1.49832-1.12407,5.40851-1.68188,7.76191-.60256,2.54286-1.26011,5.09463-1.95624,7.59193-.91535-1.39997-1.79981-2.86867-2.6325-4.3718-.82725-1.49319-1.62569-3.06272-2.37474-4.66784,.27643-.24095,.4423-.61428,.4423-1.01608,0-.70845-.51155-1.28489-1.1405-1.28489-.62877,0-1.14032,.57644-1.14032,1.28489,0,.5226,.27829,.98414,.69493,1.18223-.14997,1.84084-.33058,3.69023-.5371,5.49962-.31174,2.72828-.69392,5.47474-1.13727,8.16943-1.3686-1.24049-2.70599-2.59659-3.97983-4.03563-1.043-1.17812-2.06869-2.44209-3.05048-3.75927,.16984-.2294,.26478-.52022,.26478-.82262,0-.70855-.51155-1.28485-1.1405-1.28485-.62877,0-1.14036,.5763-1.14036,1.28485,0,.72452,.53675,1.31472,1.18318,1.28387,.34206,1.7553,.64678,3.54009,.90626,5.30799,.31068,2.11667,.5676,4.27823,.76365,6.4248l.01762,3.9343H57.84645l.01765-3.9343c.19606-2.14657,.45293-4.30813,.76379-6.4248,.26049-1.7744,.56588-3.56374,.90864-5.32178l.04012,.00084c.62891,0,1.1405-.57634,1.1405-1.28485,0-.70841-.51158-1.28482-1.1405-1.28482Z"/>
      <g>
        <path class="cls-3" d="M28.44892,52.13883h2.76025c.2666,0,.5249,.03125,.7749,.09473s.46826,.16699,.65527,.31055c.18652,.14258,.32617,.32812,.41992,.55469,.09326,.22656,.11621,.5,.06982,.82031-.05322,.39941-.21338,.72949-.47998,.99023-.2666,.25977-.58984,.44629-.97021,.55957v.01953c.22021,.02734,.41699,.08887,.59033,.18555s.31836,.21973,.43506,.37012c.11621,.14941,.19824,.32324,.24463,.51953,.04688,.19727,.05371,.40918,.02002,.63574-.05322,.38672-.1748,.70801-.36475,.96484s-.42188,.46289-.69482,.62012c-.27344,.15625-.5752,.26758-.90527,.33496-.33008,.06641-.66162,.09961-.99512,.09961h-2.5498l.98975-7.08008Zm.42041,6h1.15967c.16016,0,.3335-.00977,.52002-.03027,.18652-.01953,.36035-.06641,.52002-.13965,.16016-.07324,.30029-.17871,.41992-.31543,.12012-.13574,.19678-.32129,.22998-.55469,.05371-.37305-.03174-.63281-.25488-.78027-.22314-.14648-.5918-.21973-1.10498-.21973h-1.20996l-.27979,2.04004Zm.43994-3.12012h1.1499c.41992,0,.74658-.08105,.97998-.24512,.2334-.16309,.3667-.37793,.3999-.64453,.04688-.30664-.02832-.53516-.2251-.68555-.19678-.14941-.53467-.22461-1.01465-.22461h-1.04004l-.25,1.7998Z"/>
        <path class="cls-3" d="M34.9289,52.13883h4.69043l-.16016,1.13965h-3.43018l-.23975,1.74023h3.25l-.16016,1.14062h-3.25l-.27002,1.91992h3.60986l-.15967,1.13965h-4.87012l.98975-7.08008Z"/>
        <path class="cls-3" d="M44.29951,53.65837c-.11328-.19336-.27344-.33496-.48047-.4248s-.43359-.13477-.67969-.13477c-.14697,0-.29199,.0166-.43555,.0498-.14307,.0332-.2749,.08691-.39502,.16016-.11963,.07324-.22168,.16797-.30469,.28516-.0835,.11621-.13525,.25488-.15527,.41504-.0332,.24023,.02344,.42383,.16992,.5498,.14697,.12695,.33838,.2373,.5752,.33008,.23682,.09375,.49268,.18359,.77002,.27051,.27734,.08594,.5293,.20605,.75977,.35938s.41016,.35645,.54102,.61035c.12891,.25293,.16406,.58984,.10352,1.00977-.05273,.37988-.16992,.71191-.34961,.99512s-.40234,.51855-.66406,.70508c-.26367,.18652-.55859,.32617-.88574,.41992-.32666,.09277-.66309,.13965-1.00977,.13965-.43994,0-.85352-.07324-1.24023-.21973s-.70312-.39355-.94971-.74023l1.08008-.91992c.12646,.2334,.30469,.41504,.53467,.54492s.48486,.19531,.76514,.19531c.14648,0,.29492-.02051,.44482-.05957,.1499-.04004,.29004-.10059,.41992-.18066s.24121-.18164,.33496-.30469,.1543-.26465,.17969-.4248c.0332-.26074-.02344-.45996-.16992-.60059-.14648-.13965-.33789-.25781-.57471-.35449-.23633-.09668-.49316-.18848-.77002-.27539-.27637-.08594-.52832-.20508-.75488-.35449-.22656-.15039-.40674-.35059-.54004-.60059s-.16992-.58496-.10986-1.00488c.05322-.36621,.17334-.68359,.35986-.9502s.41504-.48828,.68506-.66504,.56836-.30859,.89502-.39453c.32666-.08691,.65332-.12988,.97949-.12988,.37305,0,.72852,.05664,1.06641,.16992,.33594,.11328,.62109,.2998,.85352,.55957l-1.04883,.96973Z"/>
        <path class="cls-3" d="M48.06904,53.27848h-2.16992l.15918-1.13965h5.60059l-.16016,1.13965h-2.16992l-.83008,5.94043h-1.25977l.83008-5.94043Z"/>
      </g>
      <g>
        <path class="cls-1" d="M35.94111,38.95719l-1.96289,1.59961-.75391-1.0791,3.10693-2.31445h1.41699l-1.28711,9.2041h-1.56006l1.04004-7.41016Z"/>
        <path class="cls-1" d="M39.58369,41.76579c.104-.72852,.25098-1.35059,.44189-1.86621,.19043-.51562,.40479-.94824,.64355-1.2998,.23828-.35059,.4917-.63281,.76025-.84473,.26855-.21289,.53516-.37305,.7998-.48145,.26416-.1084,.51318-.17969,.74707-.21387,.23438-.03516,.4375-.05273,.61133-.05273,.17334,0,.37256,.01758,.59766,.05273,.22559,.03418,.45312,.10547,.68262,.21387s.44873,.26855,.65674,.48145c.20801,.21191,.3833,.49414,.52637,.84473,.14307,.35156,.23584,.78418,.2793,1.2998s.01318,1.1377-.09082,1.86621c-.104,.72754-.24902,1.34961-.43555,1.86523s-.39844,.94922-.63672,1.2998c-.23877,.35059-.49414,.63281-.76709,.84473-.27295,.21289-.53955,.37305-.7998,.48145-.25977,.1084-.50684,.17969-.74072,.21387-.23389,.03516-.43799,.05273-.61133,.05273s-.37256-.01758-.59766-.05273c-.22559-.03418-.45312-.10547-.68262-.21387-.22998-.1084-.45068-.26855-.66309-.48145-.2124-.21191-.3877-.49414-.52637-.84473s-.23193-.78418-.27979-1.2998c-.04736-.51562-.01904-1.1377,.08496-1.86523Zm1.55957,0c-.04346,.28516-.07129,.61719-.08447,.99414-.0127,.37695,.01953,.73438,.09766,1.07227s.21631,.62402,.41602,.8584c.19922,.2334,.49414,.35059,.88379,.35059,.39014,0,.71729-.11719,.98193-.35059,.26416-.23438,.48291-.52051,.65625-.8584s.30322-.69531,.39014-1.07227c.08643-.37695,.15137-.70898,.19482-.99414,.04346-.28613,.07373-.61816,.09131-.99512,.01709-.37695-.01318-.73438-.09131-1.07227s-.2168-.62402-.41602-.8584c-.19922-.2334-.49414-.35059-.88379-.35059-.39014,0-.71729,.11719-.98145,.35059-.26465,.23438-.4834,.52051-.65674,.8584s-.30566,.69531-.39648,1.07227-.1582,.70898-.20166,.99512Z"/>
      </g>
      <line class="cls-4" x1="21.47731" y1="49.69224" x2="57.89055" y2="49.69224"/>
    </g>
  </g>
</svg>