<?xml version="1.0" encoding="UTF-8"?>
<svg id="_イヤー_2" data-name="レイヤー 2" xmlns="http://www.w3.org/2000/svg" viewBox="0 0 79.37008 79.37008">
  <defs>
    <style>
      .cls-1 {
        fill: #fff;
      }

      .cls-2 {
        fill: #efefef;
      }

      .cls-3 {
        fill: #4c4948;
      }

      .cls-4 {
        fill: none;
        stroke: #4c4948;
        stroke-miterlimit: 10;
      }
    </style>
  </defs>
  <g id="_back" data-name=" back">
    <circle class="cls-2" cx="39.68504" cy="39.68504" r="39.68504"/>
  </g>
  <g id="_イヤー_2-2" data-name="レイヤー 2">
    <g>
      <path class="cls-3" d="M59.57666,30.2316c-.62863,0-1.14036,.57641-1.14036,1.28482,0,.30616,.09683,.59947,.26994,.82995-.98372,1.31985-2.01109,2.5862-3.05546,3.76587-1.27366,1.43879-2.61105,2.79489-3.98,4.03563-.44318-2.69416-.82553-5.44055-1.13727-8.16943-.20374-1.78464-.38232-3.60849-.53092-5.42465,.51653-.1221,.90657-.64057,.90657-1.2572,0-.70845-.51155-1.28489-1.14032-1.28489s-1.1405,.57644-1.1405,1.28489c0,.32178,.10624,.62842,.29563,.86347-.77001,1.65875-1.59241,3.27977-2.44588,4.82052-.83252,1.50288-1.71698,2.9714-2.63246,4.37173-.69599-2.49678-1.35354-5.04837-1.95627-7.59193-.55763-2.3534-1.37098-6.26359-1.68188-7.76191,.37583-.21708,.618-.65408,.618-1.14257,0-.70848-.51155-1.28489-1.14036-1.28489-.62891,0-1.14032,.57641-1.14032,1.28489,0,.48849,.242,.92549,.61782,1.14257-.31072,1.49832-1.12407,5.40851-1.68188,7.76191-.60256,2.54286-1.26011,5.09463-1.95624,7.59193-.91535-1.39997-1.79981-2.86867-2.6325-4.3718-.82725-1.49319-1.62569-3.06272-2.37474-4.66784,.27643-.24095,.4423-.61428,.4423-1.01608,0-.70845-.51155-1.28489-1.1405-1.28489-.62877,0-1.14032,.57644-1.14032,1.28489,0,.5226,.27829,.98414,.69493,1.18223-.14997,1.84084-.33058,3.69023-.5371,5.49962-.31174,2.72828-.69392,5.47474-1.13727,8.16943-1.3686-1.24049-2.70599-2.59659-3.97983-4.03563-1.043-1.17812-2.06869-2.44209-3.05048-3.75927,.16984-.2294,.26478-.52022,.26478-.82262,0-.70855-.51155-1.28485-1.1405-1.28485-.62877,0-1.14036,.5763-1.14036,1.28485,0,.72452,.53675,1.31472,1.18318,1.28387,.34206,1.7553,.64678,3.54009,.90626,5.30799,.31068,2.11667,.5676,4.27823,.76365,6.4248l.01762,3.9343H57.84645l.01765-3.9343c.19606-2.14657,.45293-4.30813,.76379-6.4248,.26049-1.7744,.56588-3.56374,.90864-5.32178l.04012,.00084c.62891,0,1.1405-.57634,1.1405-1.28485,0-.70841-.51158-1.28482-1.1405-1.28482Z"/>
      <g>
        <path class="cls-3" d="M28.44869,52.13844h2.76074c.2666,0,.52441,.03223,.77441,.0957s.46875,.16602,.65527,.30957,.32617,.32812,.41992,.55469c.09375,.22754,.11621,.5,.07031,.82031-.05371,.39941-.21387,.72949-.48047,.99023-.2666,.25977-.58984,.44629-.96973,.55957v.01953c.21973,.02734,.41699,.08887,.58984,.18555,.17383,.09668,.31836,.21973,.43555,.37012,.11621,.14941,.19824,.32324,.24414,.51953,.04688,.19727,.05371,.40918,.02051,.63574-.05371,.38672-.1748,.70801-.36523,.96484-.18945,.25684-.42188,.46289-.69434,.62012-.27344,.15625-.5752,.26758-.90527,.33496-.33008,.06641-.66211,.09961-.99512,.09961h-2.5498l.98926-7.08008Zm.4209,6h1.15918c.16016,0,.33398-.00977,.52051-.03027,.18652-.01953,.36035-.06641,.51953-.13965,.16016-.07324,.30078-.17871,.41992-.31543,.12012-.13574,.19727-.32129,.23047-.55469,.05371-.37305-.03223-.63281-.25488-.78027-.22363-.14648-.5918-.21973-1.10547-.21973h-1.20996l-.2793,2.04004Zm.43945-3.12012h1.15039c.41992,0,.74609-.08105,.97949-.24512,.2334-.16309,.36719-.37793,.40039-.64453,.04688-.30664-.02832-.53516-.22559-.68457-.19629-.15039-.53418-.22559-1.01465-.22559h-1.04004l-.25,1.7998Z"/>
        <path class="cls-3" d="M34.92915,52.13844h4.69043l-.16016,1.14062h-3.43066l-.23926,1.73926h3.25l-.16016,1.14062h-3.25l-.27051,1.91992h3.61035l-.16016,1.13965h-4.87012l.99023-7.08008Z"/>
        <path class="cls-3" d="M44.29927,53.65895c-.11328-.19336-.27344-.33496-.48047-.4248-.20703-.09082-.43359-.13574-.67969-.13574-.14648,0-.29199,.0166-.43555,.05078-.14258,.0332-.27441,.08594-.39453,.15918-.12012,.07422-.22168,.16895-.30469,.28516-.08398,.11719-.13574,.25488-.15527,.41504-.0332,.24023,.02344,.42383,.16992,.5498,.14648,.12695,.33789,.2373,.5752,.33008,.23633,.09375,.49219,.18359,.76953,.27051,.27734,.08594,.5293,.20605,.75977,.35938s.41016,.35645,.54102,.61035c.12891,.25293,.16406,.58984,.10352,1.00977-.05273,.37988-.16992,.71191-.34961,.99512s-.40234,.51855-.66406,.70508c-.26367,.18652-.55859,.32617-.88574,.41992-.32617,.09277-.66309,.13965-1.00977,.13965-.43945,0-.85352-.07324-1.24023-.21973s-.70312-.39355-.94922-.74023l1.08008-.91992c.12598,.2334,.30469,.41504,.53418,.54492,.23047,.12988,.48535,.19531,.76562,.19531,.14648,0,.29492-.02051,.44434-.05957,.15039-.04004,.29004-.10059,.41992-.18066s.24121-.18164,.33496-.30469,.1543-.26465,.17969-.4248c.0332-.26074-.02344-.45996-.16992-.60059-.14648-.13965-.33789-.25781-.57422-.35449s-.49316-.18848-.77051-.27539c-.27637-.08594-.52832-.20508-.75488-.35449-.22656-.15039-.40625-.35059-.54004-.60059-.13281-.25-.16992-.58496-.10938-1.00488,.05273-.36621,.17285-.68262,.35938-.94922s.41504-.48828,.68555-.66504c.26953-.17676,.56836-.30859,.89453-.39551,.32715-.08691,.65332-.12988,.97949-.12988,.37305,0,.72852,.05664,1.06641,.16992,.33594,.11328,.62109,.2998,.85352,.56055l-1.04883,.96973Z"/>
        <path class="cls-3" d="M48.0688,53.27907h-2.16992l.15918-1.14062h5.60059l-.16016,1.14062h-2.16992l-.83008,5.93945h-1.25977l.83008-5.93945Z"/>
      </g>
      <path class="cls-1" d="M38.57466,40.86794h.40332c.22461,0,.44629-.0127,.66309-.03906,.21582-.02637,.41504-.08203,.59766-.16895,.18164-.08691,.33301-.21191,.45508-.37695,.12109-.16406,.20312-.38574,.24707-.66309,.05176-.35547-.02637-.64551-.23438-.87109s-.50684-.33789-.89648-.33789c-.3125,0-.60742,.08887-.88477,.2666s-.48926,.42676-.63672,.74707l-1.59863-.44141c.14648-.33789,.33594-.63281,.56543-.88379,.22949-.25195,.48535-.45703,.7666-.61816,.28125-.16016,.58496-.2793,.91016-.35742s.65625-.11719,.99414-.11719c.39844,0,.76953,.05273,1.1123,.15625,.3418,.10449,.63184,.25781,.87012,.46191,.23828,.20312,.41602,.45898,.5332,.7666s.14551,.66504,.08496,1.07227c-.06934,.49414-.27148,.93457-.60449,1.31934-.33398,.38574-.75195,.63965-1.25488,.76074l-.0127,.02637c.58008,.08691,.99219,.33789,1.23438,.75391,.24316,.41602,.3252,.91016,.24707,1.48242-.06055,.44141-.19922,.83203-.41602,1.16992s-.48535,.62207-.80566,.85156-.67578,.40234-1.06641,.51953c-.38965,.11719-.78809,.17578-1.19531,.17578-.38184,0-.73438-.04102-1.05957-.12402-.3252-.08203-.61328-.20996-.86426-.38281-.25195-.17383-.45801-.39648-.61816-.66992s-.2666-.59961-.31836-.98145l1.72949-.44238c.04297,.38184,.1709,.67676,.38281,.88477,.21289,.20801,.52637,.31152,.94238,.31152,.20801,0,.41016-.03418,.60449-.10352,.19531-.06934,.37305-.16699,.5332-.29297s.29492-.27734,.40332-.45508,.17969-.375,.21484-.5918c.04297-.29395,.01465-.53418-.08496-.7207s-.24023-.33008-.42285-.42969c-.18164-.09961-.3916-.16602-.62988-.20117-.23828-.03418-.47461-.05176-.70898-.05176h-.37695l.19531-1.4043Z"/>
      <line class="cls-4" x1="21.47731" y1="49.69224" x2="57.89055" y2="49.69224"/>
    </g>
  </g>
</svg>